<?xml version="1.0" standalone="no"?><!DOCTYPE svg PUBLIC "-//W3C//DTD SVG 1.1//EN" "http://www.w3.org/Graphics/SVG/1.1/DTD/svg11.dtd"><svg t="1631003641652" class="icon" viewBox="0 0 1024 1024" version="1.1" xmlns="http://www.w3.org/2000/svg" p-id="2224" xmlns:xlink="http://www.w3.org/1999/xlink" width="200" height="200"><defs><style type="text/css"></style></defs><path d="M923.264 899.52c-0.896 0.704-86.272 68.992-259.008-4.8-204.352-87.04-360.96-2.112-367.488 1.536a31.616 31.616 0 0 0 30.72 55.232c1.408-0.768 135.744-73.6 311.872 1.536 68.416 29.12 126.272 38.976 173.504 38.976 96.256 0 147.648-41.152 150.784-43.776a31.424 31.424 0 0 0 4.096-44.48 31.552 31.552 0 0 0-44.48-4.224z m-389.632-416.64a31.616 31.616 0 0 0-44.8 0L335.68 636.096c9.408-64.192 79.616-192 214.016-326.4 80-80 164.992-144.832 239.36-182.592 68.608-34.88 112-37.632 124.8-24.96 31.104 31.104-35.904 192.256-207.68 364.16-64.832 64.832-132.992 119.68-197.12 158.848a31.68 31.68 0 0 0 33.024 53.952c68.352-41.728 140.48-99.84 208.832-168.256 84.672-84.608 153.6-175.36 194.432-255.488 58.88-115.84 39.68-171.584 13.376-198.08-26.432-26.432-82.304-45.504-198.144 13.376-80.128 40.704-170.88 109.696-255.488 194.368-148.8 148.736-264.512 333.632-225.408 427.2L49.472 922.24a31.616 31.616 0 1 0 44.8 44.8l439.36-439.424a31.616 31.616 0 0 0 0-44.8z" fill="#009688" p-id="2225"></path></svg>